<svg id="Capa_1" data-name="Capa 1" xmlns="http://www.w3.org/2000/svg" viewBox="0 0 254.06 106.18"><title>dots-fill</title><ellipse cx="3.65" cy="3.67" rx="1.61" ry="1.62" style="fill:#2c9bce"/><ellipse cx="11.88" cy="3.67" rx="1.61" ry="1.62" style="fill:#2c9bce"/><ellipse cx="20.1" cy="3.67" rx="1.61" ry="1.62" style="fill:#2c9bce"/><ellipse cx="28.33" cy="3.67" rx="1.61" ry="1.62" style="fill:#2c9bce"/><ellipse cx="36.55" cy="3.67" rx="1.61" ry="1.62" style="fill:#2c9bce"/><ellipse cx="44.78" cy="3.67" rx="1.61" ry="1.62" style="fill:#2c9bce"/><ellipse cx="53" cy="3.67" rx="1.61" ry="1.62" style="fill:#2c9bce"/><ellipse cx="61.23" cy="3.67" rx="1.61" ry="1.62" style="fill:#2c9bce"/><ellipse cx="69.45" cy="3.67" rx="1.61" ry="1.62" style="fill:#2c9bce"/><ellipse cx="77.68" cy="3.67" rx="1.61" ry="1.62" style="fill:#2c9bce"/><ellipse cx="85.91" cy="3.67" rx="1.61" ry="1.62" style="fill:#2c9bce"/><ellipse cx="94.13" cy="3.67" rx="1.61" ry="1.62" style="fill:#2c9bce"/><ellipse cx="102.36" cy="3.67" rx="1.61" ry="1.62" style="fill:#2c9bce"/><ellipse cx="110.58" cy="3.67" rx="1.61" ry="1.62" style="fill:#2c9bce"/><ellipse cx="118.81" cy="3.67" rx="1.61" ry="1.62" style="fill:#2c9bce"/><ellipse cx="127.03" cy="3.67" rx="1.61" ry="1.62" style="fill:#2c9bce"/><ellipse cx="135.26" cy="3.67" rx="1.61" ry="1.62" style="fill:#2c9bce"/><ellipse cx="143.48" cy="3.67" rx="1.61" ry="1.62" style="fill:#2c9bce"/><ellipse cx="151.71" cy="3.67" rx="1.61" ry="1.62" style="fill:#2c9bce"/><ellipse cx="159.93" cy="3.67" rx="1.61" ry="1.62" style="fill:#2c9bce"/><ellipse cx="168.16" cy="3.67" rx="1.61" ry="1.62" style="fill:#2c9bce"/><ellipse cx="176.38" cy="3.67" rx="1.61" ry="1.62" style="fill:#2c9bce"/><ellipse cx="184.61" cy="3.67" rx="1.61" ry="1.62" style="fill:#2c9bce"/><ellipse cx="192.83" cy="3.67" rx="1.61" ry="1.62" style="fill:#2c9bce"/><ellipse cx="201.06" cy="3.67" rx="1.61" ry="1.62" style="fill:#2c9bce"/><ellipse cx="209.28" cy="3.67" rx="1.61" ry="1.62" style="fill:#2c9bce"/><ellipse cx="217.51" cy="3.67" rx="1.61" ry="1.62" style="fill:#2c9bce"/><ellipse cx="225.73" cy="3.67" rx="1.61" ry="1.62" style="fill:#2c9bce"/><ellipse cx="233.96" cy="3.67" rx="1.61" ry="1.62" style="fill:#2c9bce"/><ellipse cx="242.18" cy="3.67" rx="1.61" ry="1.62" style="fill:#2c9bce"/><ellipse cx="250.41" cy="3.67" rx="1.61" ry="1.62" style="fill:#2c9bce"/><ellipse cx="3.65" cy="11.91" rx="1.61" ry="1.62" style="fill:#2c9bce"/><ellipse cx="11.88" cy="11.91" rx="1.61" ry="1.62" style="fill:#2c9bce"/><ellipse cx="20.1" cy="11.91" rx="1.61" ry="1.62" style="fill:#2c9bce"/><ellipse cx="28.33" cy="11.91" rx="1.61" ry="1.62" style="fill:#2c9bce"/><ellipse cx="36.55" cy="11.91" rx="1.61" ry="1.62" style="fill:#2c9bce"/><ellipse cx="44.78" cy="11.91" rx="1.61" ry="1.62" style="fill:#2c9bce"/><ellipse cx="53" cy="11.91" rx="1.61" ry="1.62" style="fill:#2c9bce"/><ellipse cx="61.23" cy="11.91" rx="1.61" ry="1.62" style="fill:#2c9bce"/><ellipse cx="69.45" cy="11.91" rx="1.61" ry="1.62" style="fill:#2c9bce"/><ellipse cx="77.68" cy="11.91" rx="1.61" ry="1.62" style="fill:#2c9bce"/><ellipse cx="85.91" cy="11.91" rx="1.61" ry="1.62" style="fill:#2c9bce"/><ellipse cx="94.13" cy="11.91" rx="1.61" ry="1.62" style="fill:#2c9bce"/><ellipse cx="102.36" cy="11.91" rx="1.61" ry="1.62" style="fill:#2c9bce"/><ellipse cx="110.58" cy="11.91" rx="1.61" ry="1.62" style="fill:#2c9bce"/><ellipse cx="118.81" cy="11.91" rx="1.61" ry="1.62" style="fill:#2c9bce"/><ellipse cx="127.03" cy="11.91" rx="1.61" ry="1.62" style="fill:#2c9bce"/><ellipse cx="135.26" cy="11.91" rx="1.61" ry="1.62" style="fill:#2c9bce"/><ellipse cx="143.48" cy="11.91" rx="1.61" ry="1.62" style="fill:#2c9bce"/><ellipse cx="151.71" cy="11.91" rx="1.61" ry="1.62" style="fill:#2c9bce"/><ellipse cx="159.93" cy="11.91" rx="1.61" ry="1.62" style="fill:#2c9bce"/><ellipse cx="168.16" cy="11.91" rx="1.61" ry="1.62" style="fill:#2c9bce"/><ellipse cx="176.38" cy="11.91" rx="1.61" ry="1.62" style="fill:#2c9bce"/><ellipse cx="184.61" cy="11.91" rx="1.61" ry="1.62" style="fill:#2c9bce"/><ellipse cx="192.83" cy="11.91" rx="1.61" ry="1.62" style="fill:#2c9bce"/><ellipse cx="201.06" cy="11.91" rx="1.61" ry="1.62" style="fill:#2c9bce"/><ellipse cx="209.28" cy="11.91" rx="1.61" ry="1.62" style="fill:#2c9bce"/><ellipse cx="217.51" cy="11.91" rx="1.61" ry="1.62" style="fill:#2c9bce"/><ellipse cx="225.73" cy="11.91" rx="1.61" ry="1.62" style="fill:#2c9bce"/><ellipse cx="233.96" cy="11.91" rx="1.61" ry="1.62" style="fill:#2c9bce"/><ellipse cx="242.18" cy="11.91" rx="1.61" ry="1.62" style="fill:#2c9bce"/><ellipse cx="250.41" cy="11.91" rx="1.61" ry="1.62" style="fill:#2c9bce"/><ellipse cx="3.65" cy="20.14" rx="1.61" ry="1.62" style="fill:#2c9bce"/><ellipse cx="11.88" cy="20.14" rx="1.61" ry="1.62" style="fill:#2c9bce"/><ellipse cx="20.1" cy="20.14" rx="1.61" ry="1.62" style="fill:#2c9bce"/><ellipse cx="28.33" cy="20.14" rx="1.61" ry="1.62" style="fill:#2c9bce"/><ellipse cx="36.55" cy="20.14" rx="1.61" ry="1.62" style="fill:#2c9bce"/><ellipse cx="44.78" cy="20.14" rx="1.61" ry="1.62" style="fill:#2c9bce"/><ellipse cx="53" cy="20.14" rx="1.61" ry="1.62" style="fill:#2c9bce"/><ellipse cx="61.23" cy="20.14" rx="1.61" ry="1.62" style="fill:#2c9bce"/><ellipse cx="69.45" cy="20.14" rx="1.61" ry="1.62" style="fill:#2c9bce"/><ellipse cx="77.68" cy="20.14" rx="1.61" ry="1.62" style="fill:#2c9bce"/><ellipse cx="85.91" cy="20.14" rx="1.61" ry="1.62" style="fill:#2c9bce"/><ellipse cx="94.13" cy="20.14" rx="1.61" ry="1.62" style="fill:#2c9bce"/><ellipse cx="102.36" cy="20.14" rx="1.61" ry="1.62" style="fill:#2c9bce"/><ellipse cx="110.58" cy="20.14" rx="1.61" ry="1.62" style="fill:#2c9bce"/><ellipse cx="118.81" cy="20.14" rx="1.61" ry="1.62" style="fill:#2c9bce"/><ellipse cx="127.03" cy="20.14" rx="1.61" ry="1.62" style="fill:#2c9bce"/><ellipse cx="135.26" cy="20.14" rx="1.61" ry="1.62" style="fill:#2c9bce"/><ellipse cx="143.48" cy="20.14" rx="1.61" ry="1.62" style="fill:#2c9bce"/><ellipse cx="151.71" cy="20.14" rx="1.61" ry="1.62" style="fill:#2c9bce"/><ellipse cx="159.93" cy="20.14" rx="1.61" ry="1.62" style="fill:#2c9bce"/><ellipse cx="168.16" cy="20.14" rx="1.61" ry="1.62" style="fill:#2c9bce"/><ellipse cx="176.38" cy="20.14" rx="1.61" ry="1.62" style="fill:#2c9bce"/><ellipse cx="184.61" cy="20.14" rx="1.61" ry="1.62" style="fill:#2c9bce"/><ellipse cx="192.83" cy="20.14" rx="1.61" ry="1.62" style="fill:#2c9bce"/><ellipse cx="201.06" cy="20.14" rx="1.61" ry="1.62" style="fill:#2c9bce"/><ellipse cx="209.28" cy="20.14" rx="1.61" ry="1.62" style="fill:#2c9bce"/><ellipse cx="217.51" cy="20.14" rx="1.61" ry="1.62" style="fill:#2c9bce"/><ellipse cx="225.73" cy="20.14" rx="1.61" ry="1.62" style="fill:#2c9bce"/><ellipse cx="233.96" cy="20.14" rx="1.61" ry="1.62" style="fill:#2c9bce"/><ellipse cx="242.18" cy="20.14" rx="1.61" ry="1.62" style="fill:#2c9bce"/><ellipse cx="250.41" cy="20.14" rx="1.61" ry="1.62" style="fill:#2c9bce"/><ellipse cx="3.65" cy="28.38" rx="1.61" ry="1.62" style="fill:#2c9bce"/><ellipse cx="11.88" cy="28.38" rx="1.61" ry="1.62" style="fill:#2c9bce"/><ellipse cx="20.1" cy="28.38" rx="1.61" ry="1.62" style="fill:#2c9bce"/><ellipse cx="28.33" cy="28.38" rx="1.61" ry="1.62" style="fill:#2c9bce"/><ellipse cx="36.55" cy="28.38" rx="1.61" ry="1.62" style="fill:#2c9bce"/><ellipse cx="44.78" cy="28.38" rx="1.61" ry="1.62" style="fill:#2c9bce"/><ellipse cx="53" cy="28.38" rx="1.61" ry="1.62" style="fill:#2c9bce"/><ellipse cx="61.23" cy="28.38" rx="1.61" ry="1.62" style="fill:#2c9bce"/><ellipse cx="69.45" cy="28.38" rx="1.61" ry="1.62" style="fill:#2c9bce"/><ellipse cx="77.68" cy="28.38" rx="1.61" ry="1.62" style="fill:#2c9bce"/><ellipse cx="85.91" cy="28.38" rx="1.61" ry="1.62" style="fill:#2c9bce"/><ellipse cx="94.13" cy="28.38" rx="1.61" ry="1.62" style="fill:#2c9bce"/><ellipse cx="102.36" cy="28.38" rx="1.61" ry="1.62" style="fill:#2c9bce"/><ellipse cx="110.58" cy="28.38" rx="1.61" ry="1.62" style="fill:#2c9bce"/><ellipse cx="118.81" cy="28.38" rx="1.61" ry="1.62" style="fill:#2c9bce"/><ellipse cx="127.03" cy="28.38" rx="1.61" ry="1.62" style="fill:#2c9bce"/><ellipse cx="135.26" cy="28.38" rx="1.61" ry="1.62" style="fill:#2c9bce"/><ellipse cx="143.48" cy="28.38" rx="1.61" ry="1.62" style="fill:#2c9bce"/><ellipse cx="151.71" cy="28.38" rx="1.61" ry="1.62" style="fill:#2c9bce"/><ellipse cx="159.93" cy="28.38" rx="1.61" ry="1.62" style="fill:#2c9bce"/><ellipse cx="168.16" cy="28.38" rx="1.61" ry="1.62" style="fill:#2c9bce"/><ellipse cx="176.38" cy="28.38" rx="1.61" ry="1.62" style="fill:#2c9bce"/><ellipse cx="184.61" cy="28.38" rx="1.61" ry="1.62" style="fill:#2c9bce"/><ellipse cx="192.83" cy="28.38" rx="1.61" ry="1.62" style="fill:#2c9bce"/><ellipse cx="201.06" cy="28.38" rx="1.61" ry="1.62" style="fill:#2c9bce"/><ellipse cx="209.28" cy="28.38" rx="1.61" ry="1.62" style="fill:#2c9bce"/><ellipse cx="217.51" cy="28.38" rx="1.61" ry="1.62" style="fill:#2c9bce"/><ellipse cx="225.73" cy="28.38" rx="1.61" ry="1.62" style="fill:#2c9bce"/><ellipse cx="233.96" cy="28.38" rx="1.61" ry="1.62" style="fill:#2c9bce"/><ellipse cx="242.18" cy="28.38" rx="1.61" ry="1.62" style="fill:#2c9bce"/><ellipse cx="250.41" cy="28.38" rx="1.61" ry="1.62" style="fill:#2c9bce"/><ellipse cx="3.65" cy="36.62" rx="1.61" ry="1.62" style="fill:#2c9bce"/><ellipse cx="11.88" cy="36.62" rx="1.61" ry="1.62" style="fill:#2c9bce"/><ellipse cx="20.1" cy="36.62" rx="1.61" ry="1.62" style="fill:#2c9bce"/><ellipse cx="28.33" cy="36.62" rx="1.61" ry="1.62" style="fill:#2c9bce"/><ellipse cx="36.55" cy="36.62" rx="1.61" ry="1.62" style="fill:#2c9bce"/><ellipse cx="44.78" cy="36.62" rx="1.61" ry="1.62" style="fill:#2c9bce"/><ellipse cx="53" cy="36.62" rx="1.61" ry="1.62" style="fill:#2c9bce"/><ellipse cx="61.23" cy="36.62" rx="1.61" ry="1.62" style="fill:#2c9bce"/><ellipse cx="69.45" cy="36.62" rx="1.61" ry="1.62" style="fill:#2c9bce"/><ellipse cx="77.68" cy="36.62" rx="1.61" ry="1.62" style="fill:#2c9bce"/><ellipse cx="85.91" cy="36.62" rx="1.61" ry="1.62" style="fill:#2c9bce"/><ellipse cx="94.13" cy="36.62" rx="1.61" ry="1.62" style="fill:#2c9bce"/><ellipse cx="102.36" cy="36.62" rx="1.61" ry="1.62" style="fill:#2c9bce"/><ellipse cx="110.58" cy="36.62" rx="1.61" ry="1.62" style="fill:#2c9bce"/><ellipse cx="118.81" cy="36.62" rx="1.61" ry="1.62" style="fill:#2c9bce"/><ellipse cx="127.03" cy="36.62" rx="1.61" ry="1.62" style="fill:#2c9bce"/><ellipse cx="135.26" cy="36.62" rx="1.61" ry="1.62" style="fill:#2c9bce"/><ellipse cx="143.48" cy="36.62" rx="1.61" ry="1.62" style="fill:#2c9bce"/><ellipse cx="151.71" cy="36.62" rx="1.61" ry="1.62" style="fill:#2c9bce"/><ellipse cx="159.93" cy="36.62" rx="1.61" ry="1.62" style="fill:#2c9bce"/><ellipse cx="168.16" cy="36.62" rx="1.61" ry="1.62" style="fill:#2c9bce"/><ellipse cx="176.38" cy="36.62" rx="1.61" ry="1.62" style="fill:#2c9bce"/><ellipse cx="184.61" cy="36.62" rx="1.61" ry="1.62" style="fill:#2c9bce"/><ellipse cx="192.83" cy="36.62" rx="1.61" ry="1.62" style="fill:#2c9bce"/><ellipse cx="201.06" cy="36.62" rx="1.61" ry="1.62" style="fill:#2c9bce"/><ellipse cx="209.28" cy="36.62" rx="1.61" ry="1.62" style="fill:#2c9bce"/><ellipse cx="217.51" cy="36.62" rx="1.61" ry="1.62" style="fill:#2c9bce"/><ellipse cx="225.73" cy="36.62" rx="1.61" ry="1.62" style="fill:#2c9bce"/><ellipse cx="233.96" cy="36.62" rx="1.61" ry="1.62" style="fill:#2c9bce"/><ellipse cx="242.18" cy="36.62" rx="1.61" ry="1.62" style="fill:#2c9bce"/><ellipse cx="250.41" cy="36.62" rx="1.61" ry="1.62" style="fill:#2c9bce"/><ellipse cx="3.65" cy="44.85" rx="1.61" ry="1.62" style="fill:#2c9bce"/><ellipse cx="11.88" cy="44.85" rx="1.61" ry="1.62" style="fill:#2c9bce"/><ellipse cx="20.1" cy="44.85" rx="1.61" ry="1.62" style="fill:#2c9bce"/><ellipse cx="28.33" cy="44.85" rx="1.61" ry="1.62" style="fill:#2c9bce"/><ellipse cx="36.55" cy="44.85" rx="1.61" ry="1.62" style="fill:#2c9bce"/><ellipse cx="44.78" cy="44.85" rx="1.61" ry="1.62" style="fill:#2c9bce"/><ellipse cx="53" cy="44.85" rx="1.61" ry="1.62" style="fill:#2c9bce"/><ellipse cx="61.23" cy="44.85" rx="1.61" ry="1.62" style="fill:#2c9bce"/><ellipse cx="69.45" cy="44.85" rx="1.61" ry="1.62" style="fill:#2c9bce"/><ellipse cx="77.68" cy="44.85" rx="1.61" ry="1.62" style="fill:#2c9bce"/><ellipse cx="85.91" cy="44.85" rx="1.61" ry="1.62" style="fill:#2c9bce"/><ellipse cx="94.13" cy="44.85" rx="1.61" ry="1.62" style="fill:#2c9bce"/><ellipse cx="102.36" cy="44.85" rx="1.61" ry="1.62" style="fill:#2c9bce"/><ellipse cx="110.58" cy="44.85" rx="1.61" ry="1.62" style="fill:#2c9bce"/><ellipse cx="118.81" cy="44.85" rx="1.61" ry="1.62" style="fill:#2c9bce"/><ellipse cx="127.03" cy="44.85" rx="1.61" ry="1.62" style="fill:#2c9bce"/><ellipse cx="135.26" cy="44.85" rx="1.61" ry="1.62" style="fill:#2c9bce"/><ellipse cx="143.48" cy="44.85" rx="1.61" ry="1.62" style="fill:#2c9bce"/><ellipse cx="151.71" cy="44.85" rx="1.61" ry="1.62" style="fill:#2c9bce"/><ellipse cx="159.93" cy="44.85" rx="1.61" ry="1.62" style="fill:#2c9bce"/><ellipse cx="168.16" cy="44.85" rx="1.61" ry="1.62" style="fill:#2c9bce"/><ellipse cx="176.38" cy="44.85" rx="1.61" ry="1.62" style="fill:#2c9bce"/><ellipse cx="184.61" cy="44.85" rx="1.61" ry="1.62" style="fill:#2c9bce"/><ellipse cx="192.83" cy="44.85" rx="1.61" ry="1.62" style="fill:#2c9bce"/><ellipse cx="201.06" cy="44.85" rx="1.61" ry="1.62" style="fill:#2c9bce"/><ellipse cx="209.28" cy="44.85" rx="1.61" ry="1.62" style="fill:#2c9bce"/><ellipse cx="217.51" cy="44.85" rx="1.61" ry="1.62" style="fill:#2c9bce"/><ellipse cx="225.73" cy="44.85" rx="1.61" ry="1.62" style="fill:#2c9bce"/><ellipse cx="233.96" cy="44.85" rx="1.61" ry="1.62" style="fill:#2c9bce"/><ellipse cx="242.18" cy="44.85" rx="1.61" ry="1.62" style="fill:#2c9bce"/><ellipse cx="250.41" cy="44.85" rx="1.61" ry="1.62" style="fill:#2c9bce"/><ellipse cx="3.65" cy="53.09" rx="1.61" ry="1.62" style="fill:#2c9bce"/><ellipse cx="11.88" cy="53.09" rx="1.61" ry="1.62" style="fill:#2c9bce"/><ellipse cx="20.1" cy="53.09" rx="1.61" ry="1.62" style="fill:#2c9bce"/><ellipse cx="28.33" cy="53.09" rx="1.61" ry="1.62" style="fill:#2c9bce"/><ellipse cx="36.55" cy="53.09" rx="1.61" ry="1.62" style="fill:#2c9bce"/><ellipse cx="44.78" cy="53.09" rx="1.61" ry="1.62" style="fill:#2c9bce"/><ellipse cx="53" cy="53.09" rx="1.61" ry="1.62" style="fill:#2c9bce"/><ellipse cx="61.23" cy="53.09" rx="1.61" ry="1.62" style="fill:#2c9bce"/><ellipse cx="69.45" cy="53.09" rx="1.61" ry="1.62" style="fill:#2c9bce"/><ellipse cx="77.68" cy="53.09" rx="1.61" ry="1.62" style="fill:#2c9bce"/><ellipse cx="85.91" cy="53.09" rx="1.61" ry="1.62" style="fill:#2c9bce"/><ellipse cx="94.13" cy="53.09" rx="1.61" ry="1.62" style="fill:#2c9bce"/><ellipse cx="102.36" cy="53.09" rx="1.61" ry="1.62" style="fill:#2c9bce"/><ellipse cx="110.58" cy="53.09" rx="1.61" ry="1.62" style="fill:#2c9bce"/><ellipse cx="118.81" cy="53.09" rx="1.61" ry="1.62" style="fill:#2c9bce"/><ellipse cx="127.03" cy="53.09" rx="1.61" ry="1.62" style="fill:#2c9bce"/><ellipse cx="135.26" cy="53.09" rx="1.61" ry="1.62" style="fill:#2c9bce"/><ellipse cx="143.48" cy="53.09" rx="1.61" ry="1.62" style="fill:#2c9bce"/><ellipse cx="151.71" cy="53.09" rx="1.61" ry="1.62" style="fill:#2c9bce"/><ellipse cx="159.93" cy="53.09" rx="1.61" ry="1.62" style="fill:#2c9bce"/><ellipse cx="168.16" cy="53.09" rx="1.61" ry="1.62" style="fill:#2c9bce"/><ellipse cx="176.38" cy="53.09" rx="1.61" ry="1.62" style="fill:#2c9bce"/><ellipse cx="184.61" cy="53.09" rx="1.61" ry="1.62" style="fill:#2c9bce"/><ellipse cx="192.83" cy="53.09" rx="1.61" ry="1.62" style="fill:#2c9bce"/><ellipse cx="201.06" cy="53.09" rx="1.61" ry="1.62" style="fill:#2c9bce"/><ellipse cx="209.28" cy="53.09" rx="1.61" ry="1.62" style="fill:#2c9bce"/><ellipse cx="217.51" cy="53.09" rx="1.61" ry="1.62" style="fill:#2c9bce"/><ellipse cx="225.73" cy="53.09" rx="1.61" ry="1.62" style="fill:#2c9bce"/><ellipse cx="233.96" cy="53.09" rx="1.61" ry="1.62" style="fill:#2c9bce"/><ellipse cx="242.18" cy="53.09" rx="1.61" ry="1.62" style="fill:#2c9bce"/><ellipse cx="250.41" cy="53.09" rx="1.61" ry="1.62" style="fill:#2c9bce"/><ellipse cx="3.65" cy="61.33" rx="1.61" ry="1.62" style="fill:#2c9bce"/><ellipse cx="11.88" cy="61.33" rx="1.61" ry="1.62" style="fill:#2c9bce"/><ellipse cx="20.1" cy="61.33" rx="1.61" ry="1.62" style="fill:#2c9bce"/><ellipse cx="28.33" cy="61.33" rx="1.61" ry="1.62" style="fill:#2c9bce"/><ellipse cx="36.55" cy="61.33" rx="1.61" ry="1.62" style="fill:#2c9bce"/><ellipse cx="44.78" cy="61.33" rx="1.61" ry="1.62" style="fill:#2c9bce"/><ellipse cx="53" cy="61.33" rx="1.61" ry="1.62" style="fill:#2c9bce"/><ellipse cx="61.23" cy="61.33" rx="1.61" ry="1.62" style="fill:#2c9bce"/><ellipse cx="69.45" cy="61.33" rx="1.61" ry="1.62" style="fill:#2c9bce"/><ellipse cx="77.68" cy="61.33" rx="1.61" ry="1.62" style="fill:#2c9bce"/><ellipse cx="85.91" cy="61.33" rx="1.61" ry="1.62" style="fill:#2c9bce"/><ellipse cx="94.13" cy="61.33" rx="1.61" ry="1.62" style="fill:#2c9bce"/><ellipse cx="102.36" cy="61.33" rx="1.61" ry="1.62" style="fill:#2c9bce"/><ellipse cx="110.58" cy="61.33" rx="1.61" ry="1.62" style="fill:#2c9bce"/><ellipse cx="118.81" cy="61.33" rx="1.61" ry="1.62" style="fill:#2c9bce"/><ellipse cx="127.03" cy="61.33" rx="1.61" ry="1.62" style="fill:#2c9bce"/><ellipse cx="135.26" cy="61.33" rx="1.61" ry="1.62" style="fill:#2c9bce"/><ellipse cx="143.48" cy="61.33" rx="1.61" ry="1.62" style="fill:#2c9bce"/><ellipse cx="151.71" cy="61.33" rx="1.61" ry="1.62" style="fill:#2c9bce"/><ellipse cx="159.93" cy="61.33" rx="1.61" ry="1.62" style="fill:#2c9bce"/><ellipse cx="168.16" cy="61.33" rx="1.61" ry="1.62" style="fill:#2c9bce"/><ellipse cx="176.38" cy="61.33" rx="1.61" ry="1.62" style="fill:#2c9bce"/><ellipse cx="184.61" cy="61.33" rx="1.61" ry="1.62" style="fill:#2c9bce"/><ellipse cx="192.83" cy="61.33" rx="1.61" ry="1.62" style="fill:#2c9bce"/><ellipse cx="201.06" cy="61.33" rx="1.61" ry="1.62" style="fill:#2c9bce"/><ellipse cx="209.28" cy="61.33" rx="1.61" ry="1.62" style="fill:#2c9bce"/><ellipse cx="217.51" cy="61.33" rx="1.61" ry="1.62" style="fill:#2c9bce"/><ellipse cx="225.73" cy="61.33" rx="1.61" ry="1.62" style="fill:#2c9bce"/><ellipse cx="233.96" cy="61.33" rx="1.61" ry="1.62" style="fill:#2c9bce"/><ellipse cx="242.18" cy="61.33" rx="1.61" ry="1.62" style="fill:#2c9bce"/><ellipse cx="250.41" cy="61.33" rx="1.61" ry="1.62" style="fill:#2c9bce"/><ellipse cx="3.65" cy="69.56" rx="1.61" ry="1.62" style="fill:#2c9bce"/><ellipse cx="11.88" cy="69.56" rx="1.61" ry="1.62" style="fill:#2c9bce"/><ellipse cx="20.1" cy="69.56" rx="1.61" ry="1.62" style="fill:#2c9bce"/><ellipse cx="28.33" cy="69.56" rx="1.61" ry="1.62" style="fill:#2c9bce"/><ellipse cx="36.55" cy="69.56" rx="1.61" ry="1.62" style="fill:#2c9bce"/><ellipse cx="44.78" cy="69.56" rx="1.61" ry="1.62" style="fill:#2c9bce"/><ellipse cx="53" cy="69.56" rx="1.61" ry="1.62" style="fill:#2c9bce"/><ellipse cx="61.23" cy="69.56" rx="1.61" ry="1.62" style="fill:#2c9bce"/><ellipse cx="69.45" cy="69.56" rx="1.61" ry="1.62" style="fill:#2c9bce"/><ellipse cx="77.68" cy="69.56" rx="1.61" ry="1.62" style="fill:#2c9bce"/><ellipse cx="85.91" cy="69.56" rx="1.61" ry="1.62" style="fill:#2c9bce"/><ellipse cx="94.13" cy="69.56" rx="1.61" ry="1.62" style="fill:#2c9bce"/><ellipse cx="102.36" cy="69.56" rx="1.61" ry="1.62" style="fill:#2c9bce"/><ellipse cx="110.58" cy="69.56" rx="1.61" ry="1.62" style="fill:#2c9bce"/><ellipse cx="118.81" cy="69.56" rx="1.61" ry="1.62" style="fill:#2c9bce"/><ellipse cx="127.03" cy="69.56" rx="1.61" ry="1.62" style="fill:#2c9bce"/><ellipse cx="135.26" cy="69.56" rx="1.61" ry="1.62" style="fill:#2c9bce"/><ellipse cx="143.48" cy="69.56" rx="1.61" ry="1.62" style="fill:#2c9bce"/><ellipse cx="151.71" cy="69.56" rx="1.61" ry="1.62" style="fill:#2c9bce"/><ellipse cx="159.93" cy="69.56" rx="1.61" ry="1.62" style="fill:#2c9bce"/><ellipse cx="168.16" cy="69.56" rx="1.61" ry="1.62" style="fill:#2c9bce"/><ellipse cx="176.38" cy="69.56" rx="1.61" ry="1.62" style="fill:#2c9bce"/><ellipse cx="184.61" cy="69.56" rx="1.61" ry="1.62" style="fill:#2c9bce"/><ellipse cx="192.83" cy="69.56" rx="1.61" ry="1.62" style="fill:#2c9bce"/><ellipse cx="201.06" cy="69.56" rx="1.61" ry="1.62" style="fill:#2c9bce"/><ellipse cx="209.28" cy="69.56" rx="1.61" ry="1.62" style="fill:#2c9bce"/><ellipse cx="217.51" cy="69.56" rx="1.61" ry="1.62" style="fill:#2c9bce"/><ellipse cx="225.73" cy="69.56" rx="1.61" ry="1.62" style="fill:#2c9bce"/><ellipse cx="233.96" cy="69.56" rx="1.61" ry="1.62" style="fill:#2c9bce"/><ellipse cx="242.18" cy="69.56" rx="1.61" ry="1.62" style="fill:#2c9bce"/><ellipse cx="250.41" cy="69.56" rx="1.61" ry="1.62" style="fill:#2c9bce"/><ellipse cx="3.65" cy="77.8" rx="1.61" ry="1.62" style="fill:#2c9bce"/><ellipse cx="11.88" cy="77.8" rx="1.61" ry="1.62" style="fill:#2c9bce"/><ellipse cx="20.1" cy="77.8" rx="1.61" ry="1.62" style="fill:#2c9bce"/><ellipse cx="28.33" cy="77.8" rx="1.61" ry="1.62" style="fill:#2c9bce"/><ellipse cx="36.55" cy="77.8" rx="1.61" ry="1.62" style="fill:#2c9bce"/><ellipse cx="44.78" cy="77.8" rx="1.61" ry="1.62" style="fill:#2c9bce"/><ellipse cx="53" cy="77.8" rx="1.61" ry="1.62" style="fill:#2c9bce"/><ellipse cx="61.23" cy="77.8" rx="1.61" ry="1.62" style="fill:#2c9bce"/><ellipse cx="69.45" cy="77.8" rx="1.61" ry="1.62" style="fill:#2c9bce"/><ellipse cx="77.68" cy="77.8" rx="1.61" ry="1.62" style="fill:#2c9bce"/><ellipse cx="85.91" cy="77.8" rx="1.61" ry="1.62" style="fill:#2c9bce"/><ellipse cx="94.13" cy="77.8" rx="1.61" ry="1.62" style="fill:#2c9bce"/><ellipse cx="102.36" cy="77.8" rx="1.61" ry="1.62" style="fill:#2c9bce"/><ellipse cx="110.58" cy="77.8" rx="1.61" ry="1.62" style="fill:#2c9bce"/><ellipse cx="118.81" cy="77.8" rx="1.61" ry="1.62" style="fill:#2c9bce"/><ellipse cx="127.03" cy="77.8" rx="1.61" ry="1.62" style="fill:#2c9bce"/><ellipse cx="135.26" cy="77.8" rx="1.61" ry="1.62" style="fill:#2c9bce"/><ellipse cx="143.48" cy="77.8" rx="1.61" ry="1.62" style="fill:#2c9bce"/><ellipse cx="151.71" cy="77.8" rx="1.61" ry="1.62" style="fill:#2c9bce"/><ellipse cx="159.93" cy="77.8" rx="1.61" ry="1.62" style="fill:#2c9bce"/><ellipse cx="168.16" cy="77.8" rx="1.61" ry="1.62" style="fill:#2c9bce"/><ellipse cx="176.38" cy="77.8" rx="1.61" ry="1.62" style="fill:#2c9bce"/><ellipse cx="184.61" cy="77.8" rx="1.61" ry="1.62" style="fill:#2c9bce"/><ellipse cx="192.83" cy="77.8" rx="1.61" ry="1.62" style="fill:#2c9bce"/><ellipse cx="201.06" cy="77.8" rx="1.61" ry="1.62" style="fill:#2c9bce"/><ellipse cx="209.28" cy="77.8" rx="1.61" ry="1.62" style="fill:#2c9bce"/><ellipse cx="217.51" cy="77.8" rx="1.61" ry="1.62" style="fill:#2c9bce"/><ellipse cx="225.73" cy="77.8" rx="1.61" ry="1.62" style="fill:#2c9bce"/><ellipse cx="233.96" cy="77.8" rx="1.61" ry="1.62" style="fill:#2c9bce"/><ellipse cx="242.18" cy="77.8" rx="1.61" ry="1.62" style="fill:#2c9bce"/><ellipse cx="250.41" cy="77.8" rx="1.61" ry="1.62" style="fill:#2c9bce"/><ellipse cx="3.65" cy="86.04" rx="1.61" ry="1.62" style="fill:#2c9bce"/><ellipse cx="11.88" cy="86.04" rx="1.61" ry="1.62" style="fill:#2c9bce"/><ellipse cx="20.1" cy="86.04" rx="1.61" ry="1.62" style="fill:#2c9bce"/><ellipse cx="28.33" cy="86.04" rx="1.61" ry="1.62" style="fill:#2c9bce"/><ellipse cx="36.55" cy="86.04" rx="1.61" ry="1.62" style="fill:#2c9bce"/><ellipse cx="44.78" cy="86.04" rx="1.61" ry="1.62" style="fill:#2c9bce"/><ellipse cx="53" cy="86.04" rx="1.61" ry="1.62" style="fill:#2c9bce"/><ellipse cx="61.23" cy="86.04" rx="1.61" ry="1.62" style="fill:#2c9bce"/><ellipse cx="69.45" cy="86.04" rx="1.61" ry="1.62" style="fill:#2c9bce"/><ellipse cx="77.68" cy="86.04" rx="1.61" ry="1.62" style="fill:#2c9bce"/><ellipse cx="85.91" cy="86.04" rx="1.61" ry="1.62" style="fill:#2c9bce"/><ellipse cx="94.13" cy="86.04" rx="1.61" ry="1.62" style="fill:#2c9bce"/><ellipse cx="102.36" cy="86.04" rx="1.61" ry="1.62" style="fill:#2c9bce"/><ellipse cx="110.58" cy="86.04" rx="1.61" ry="1.62" style="fill:#2c9bce"/><ellipse cx="118.81" cy="86.04" rx="1.61" ry="1.62" style="fill:#2c9bce"/><ellipse cx="127.03" cy="86.04" rx="1.61" ry="1.62" style="fill:#2c9bce"/><ellipse cx="135.26" cy="86.04" rx="1.61" ry="1.62" style="fill:#2c9bce"/><ellipse cx="143.48" cy="86.04" rx="1.61" ry="1.62" style="fill:#2c9bce"/><ellipse cx="151.71" cy="86.04" rx="1.61" ry="1.62" style="fill:#2c9bce"/><ellipse cx="159.93" cy="86.04" rx="1.61" ry="1.62" style="fill:#2c9bce"/><ellipse cx="168.16" cy="86.04" rx="1.61" ry="1.62" style="fill:#2c9bce"/><ellipse cx="176.38" cy="86.04" rx="1.61" ry="1.62" style="fill:#2c9bce"/><ellipse cx="184.61" cy="86.04" rx="1.61" ry="1.62" style="fill:#2c9bce"/><ellipse cx="192.83" cy="86.04" rx="1.61" ry="1.62" style="fill:#2c9bce"/><ellipse cx="201.06" cy="86.04" rx="1.61" ry="1.62" style="fill:#2c9bce"/><ellipse cx="209.28" cy="86.04" rx="1.61" ry="1.62" style="fill:#2c9bce"/><ellipse cx="217.51" cy="86.04" rx="1.61" ry="1.62" style="fill:#2c9bce"/><ellipse cx="225.73" cy="86.04" rx="1.61" ry="1.62" style="fill:#2c9bce"/><ellipse cx="233.96" cy="86.04" rx="1.61" ry="1.62" style="fill:#2c9bce"/><ellipse cx="242.18" cy="86.04" rx="1.61" ry="1.62" style="fill:#2c9bce"/><ellipse cx="250.41" cy="86.04" rx="1.61" ry="1.62" style="fill:#2c9bce"/><ellipse cx="3.65" cy="94.27" rx="1.61" ry="1.62" style="fill:#2c9bce"/><ellipse cx="11.88" cy="94.27" rx="1.61" ry="1.62" style="fill:#2c9bce"/><ellipse cx="20.1" cy="94.27" rx="1.61" ry="1.62" style="fill:#2c9bce"/><ellipse cx="28.33" cy="94.27" rx="1.61" ry="1.62" style="fill:#2c9bce"/><ellipse cx="36.55" cy="94.27" rx="1.61" ry="1.62" style="fill:#2c9bce"/><ellipse cx="44.78" cy="94.27" rx="1.61" ry="1.62" style="fill:#2c9bce"/><ellipse cx="53" cy="94.27" rx="1.61" ry="1.62" style="fill:#2c9bce"/><ellipse cx="61.23" cy="94.27" rx="1.61" ry="1.62" style="fill:#2c9bce"/><ellipse cx="69.45" cy="94.27" rx="1.61" ry="1.62" style="fill:#2c9bce"/><ellipse cx="77.68" cy="94.27" rx="1.61" ry="1.62" style="fill:#2c9bce"/><ellipse cx="85.91" cy="94.27" rx="1.61" ry="1.62" style="fill:#2c9bce"/><ellipse cx="94.13" cy="94.27" rx="1.61" ry="1.62" style="fill:#2c9bce"/><ellipse cx="102.36" cy="94.27" rx="1.61" ry="1.62" style="fill:#2c9bce"/><ellipse cx="110.58" cy="94.27" rx="1.61" ry="1.62" style="fill:#2c9bce"/><ellipse cx="118.81" cy="94.27" rx="1.61" ry="1.62" style="fill:#2c9bce"/><ellipse cx="127.03" cy="94.27" rx="1.61" ry="1.62" style="fill:#2c9bce"/><ellipse cx="135.26" cy="94.27" rx="1.61" ry="1.62" style="fill:#2c9bce"/><ellipse cx="143.48" cy="94.27" rx="1.61" ry="1.62" style="fill:#2c9bce"/><ellipse cx="151.71" cy="94.27" rx="1.61" ry="1.62" style="fill:#2c9bce"/><ellipse cx="159.93" cy="94.27" rx="1.61" ry="1.62" style="fill:#2c9bce"/><ellipse cx="168.16" cy="94.27" rx="1.61" ry="1.62" style="fill:#2c9bce"/><ellipse cx="176.38" cy="94.27" rx="1.61" ry="1.62" style="fill:#2c9bce"/><ellipse cx="184.61" cy="94.27" rx="1.61" ry="1.62" style="fill:#2c9bce"/><ellipse cx="192.83" cy="94.27" rx="1.61" ry="1.62" style="fill:#2c9bce"/><ellipse cx="201.06" cy="94.27" rx="1.61" ry="1.62" style="fill:#2c9bce"/><ellipse cx="209.28" cy="94.27" rx="1.61" ry="1.62" style="fill:#2c9bce"/><ellipse cx="217.51" cy="94.27" rx="1.61" ry="1.62" style="fill:#2c9bce"/><ellipse cx="225.73" cy="94.27" rx="1.61" ry="1.62" style="fill:#2c9bce"/><ellipse cx="233.96" cy="94.27" rx="1.61" ry="1.62" style="fill:#2c9bce"/><ellipse cx="242.18" cy="94.27" rx="1.61" ry="1.62" style="fill:#2c9bce"/><ellipse cx="250.41" cy="94.27" rx="1.61" ry="1.62" style="fill:#2c9bce"/><ellipse cx="3.65" cy="102.51" rx="1.61" ry="1.62" style="fill:#2c9bce"/><ellipse cx="11.88" cy="102.51" rx="1.61" ry="1.62" style="fill:#2c9bce"/><ellipse cx="20.1" cy="102.51" rx="1.61" ry="1.62" style="fill:#2c9bce"/><ellipse cx="28.33" cy="102.51" rx="1.61" ry="1.62" style="fill:#2c9bce"/><ellipse cx="36.55" cy="102.51" rx="1.61" ry="1.62" style="fill:#2c9bce"/><ellipse cx="44.78" cy="102.51" rx="1.61" ry="1.62" style="fill:#2c9bce"/><ellipse cx="53" cy="102.51" rx="1.61" ry="1.62" style="fill:#2c9bce"/><ellipse cx="61.23" cy="102.51" rx="1.61" ry="1.62" style="fill:#2c9bce"/><ellipse cx="69.45" cy="102.51" rx="1.61" ry="1.62" style="fill:#2c9bce"/><ellipse cx="77.68" cy="102.51" rx="1.61" ry="1.62" style="fill:#2c9bce"/><ellipse cx="85.91" cy="102.51" rx="1.61" ry="1.62" style="fill:#2c9bce"/><ellipse cx="94.13" cy="102.51" rx="1.61" ry="1.62" style="fill:#2c9bce"/><ellipse cx="102.36" cy="102.51" rx="1.61" ry="1.62" style="fill:#2c9bce"/><ellipse cx="110.58" cy="102.51" rx="1.61" ry="1.62" style="fill:#2c9bce"/><ellipse cx="118.81" cy="102.51" rx="1.61" ry="1.62" style="fill:#2c9bce"/><ellipse cx="127.03" cy="102.51" rx="1.61" ry="1.62" style="fill:#2c9bce"/><ellipse cx="135.26" cy="102.51" rx="1.61" ry="1.62" style="fill:#2c9bce"/><ellipse cx="143.48" cy="102.51" rx="1.61" ry="1.62" style="fill:#2c9bce"/><ellipse cx="151.71" cy="102.51" rx="1.61" ry="1.62" style="fill:#2c9bce"/><ellipse cx="159.93" cy="102.51" rx="1.61" ry="1.62" style="fill:#2c9bce"/><ellipse cx="168.16" cy="102.51" rx="1.61" ry="1.62" style="fill:#2c9bce"/><ellipse cx="176.38" cy="102.51" rx="1.61" ry="1.62" style="fill:#2c9bce"/><ellipse cx="184.61" cy="102.51" rx="1.61" ry="1.62" style="fill:#2c9bce"/><ellipse cx="192.83" cy="102.51" rx="1.61" ry="1.62" style="fill:#2c9bce"/><ellipse cx="201.06" cy="102.51" rx="1.61" ry="1.62" style="fill:#2c9bce"/><ellipse cx="209.28" cy="102.51" rx="1.61" ry="1.62" style="fill:#2c9bce"/><ellipse cx="217.51" cy="102.51" rx="1.61" ry="1.62" style="fill:#2c9bce"/><ellipse cx="225.73" cy="102.51" rx="1.61" ry="1.62" style="fill:#2c9bce"/><ellipse cx="233.96" cy="102.51" rx="1.61" ry="1.62" style="fill:#2c9bce"/><ellipse cx="242.18" cy="102.51" rx="1.61" ry="1.62" style="fill:#2c9bce"/><ellipse cx="250.41" cy="102.51" rx="1.61" ry="1.62" style="fill:#2c9bce"/></svg>