<?xml version="1.0" encoding="utf-8"?>
<!-- Generator: Adobe Illustrator 22.0.1, SVG Export Plug-In . SVG Version: 6.00 Build 0)  -->
<svg version="1.1" id="Capa_1" xmlns="http://www.w3.org/2000/svg" xmlns:xlink="http://www.w3.org/1999/xlink" x="0px" y="0px"
	 viewBox="0 0 308.8 93.8" style="enable-background:new 0 0 308.8 93.8;" xml:space="preserve">
<style type="text/css">
	.st0{font-family:'AmazingGrotesk-DemiBold';}
	.st1{font-size:12.13px;}
	.st2{letter-spacing:2;}
	.st3{letter-spacing:1;}
</style>
<title>Recurso 30</title>
<g id="Capa_2_1_">
	<g id="Capa_1-2">
		<path d="M21.3,31.4c12.2,0,21.3,7.7,21.3,20.3c0,12.1-8.6,22.2-21.6,22.2C6.2,73.9,0,62.4,0,52.6C0,43.8,6.4,31.4,21.3,31.4
			 M22.5,71.8c4.9,0,15-2.8,15-18.6c0-13-7.9-20-16.5-20c-9,0-15.8,6-15.8,17.8C5.2,63.7,12.8,71.8,22.5,71.8"/>
		<path d="M87.4,66.2c0.2,2,0.6,5,2.9,5.7c1.1,0.3,2.3,0.5,3.5,0.5c0.3,0,0.4,0,0.4,0.3s-0.5,0.5-1.1,0.5c-1.2,0-7-0.1-9-0.2
			c-1.3-0.1-1.5-0.3-1.5-0.5s0.1-0.3,0.4-0.4s0.3-1,0.2-2L80.6,42h-0.2L67.2,70.2C66,72.6,65.9,73,65.4,73s-0.7-0.5-1.7-2.5
			c-1.4-2.7-6.1-12-6.3-12.6c-0.5-1-6.5-14-7.2-15.4H50l-2.2,25.2c0,0.9,0,1.8,0,2.8c0,0.8,0.6,1.5,1.4,1.7c0.7,0.2,1.4,0.3,2.1,0.3
			c0.2,0,0.4,0.1,0.4,0.3c0,0.4-0.3,0.5-1,0.5c-2,0-4.6-0.2-5-0.2s-3.1,0.2-4.5,0.2c-0.5,0-0.9-0.1-0.9-0.5c0-0.2,0.3-0.3,0.5-0.3
			c0.5,0,1.1,0,1.6-0.2c1.8-0.3,2-2.4,2.2-4.5l3.9-35.3c0-0.6,0.3-1,0.6-1s0.5,0.2,0.8,0.8l16.5,34.1l15.9-34
			c0.2-0.5,0.4-0.9,0.8-0.9s0.5,0.4,0.7,1.5L87.4,66.2z"/>
		<path d="M98.7,65.8c0.1,4.4,0.7,5.8,2.1,6.3c0.9,0.2,1.8,0.3,2.7,0.3c0.3,0,0.4,0.1,0.4,0.3s-0.3,0.4-1,0.4
			c-3.1,0-5.3-0.2-5.7-0.2s-2.8,0.2-5.2,0.2c-0.6,0-0.9,0-0.9-0.4c0-0.2,0.2-0.3,0.4-0.3c0.8,0,1.5-0.1,2.2-0.3
			c1.4-0.4,1.6-2,1.6-6.9v-31c0-2.1,0.2-2.7,0.6-2.7s1.3,1.2,1.9,1.7c0.8,0.9,8.9,9.6,17.2,18.6c5.4,5.8,11.3,12.4,13,14.1
			l-0.6-27.5c-0.1-3.5-0.4-4.7-2.1-5.1c-0.9-0.2-1.8-0.3-2.7-0.3c-0.4,0-0.4-0.2-0.4-0.4s0.4-0.4,1.1-0.4c2.4,0,5,0.2,5.6,0.2
			s2.4-0.2,4.6-0.2c0.6,0,1,0,1,0.4s-0.2,0.4-0.6,0.4c-0.4,0-0.9,0-1.3,0.2c-1.8,0.4-2,1.6-2,4.8l-0.1,31.8c0,3.6-0.1,3.8-0.5,3.8
			s-1.1-0.6-4-3.5c-0.6-0.5-8.4-8.5-14.1-14.7c-6.2-6.8-12.3-13.6-14.1-15.6L98.7,65.8z"/>
		<path d="M144.4,57.4c0,5.2,0,9.5,0.3,11.8c0.2,1.6,0.5,2.8,2.1,3c0.8,0.1,1.6,0.2,2.4,0.2c0.3,0,0.4,0.2,0.4,0.3s-0.3,0.4-0.9,0.4
			c-3,0-6.4-0.2-6.7-0.2s-3.7,0.2-5.3,0.2c-0.6,0-0.9-0.1-0.9-0.4c0-0.2,0.1-0.3,0.4-0.3c0.5,0,1.1-0.1,1.6-0.2
			c1.1-0.2,1.4-1.4,1.6-3c0.3-2.3,0.3-6.6,0.3-11.8v-9.5c0-8.5,0-10-0.1-11.7s-0.6-2.8-1.8-3c-0.5-0.1-1.1-0.2-1.7-0.2
			c-0.2,0-0.4-0.1-0.4-0.3s0.3-0.4,0.9-0.4c1.8,0,5.2,0.2,5.5,0.2s3.7-0.2,5.3-0.2c0.6,0,0.9,0.1,0.9,0.4s-0.2,0.3-0.4,0.3
			c-0.5,0-0.9,0.1-1.4,0.2c-1.5,0.3-1.9,1.2-2,3.1c-0.1,1.7-0.1,3.3-0.1,11.7L144.4,57.4z"/>
		<path d="M172,66.5c3.1-7.3,10.4-26.2,11.6-30.1c0.3-0.7,0.4-1.4,0.5-2.1c0-0.5-0.2-1-0.7-1.3c-0.7-0.2-1.4-0.2-2.1-0.2
			c-0.3,0-0.6-0.1-0.6-0.3s0.3-0.4,1.2-0.4c2.2,0,4.7,0.2,5.3,0.2c0.3,0,2.7-0.2,4.2-0.2c0.6,0,0.9,0.1,0.9,0.4s-0.2,0.4-0.6,0.4
			c-0.9,0-1.8,0.2-2.6,0.7c-0.7,0.5-1.5,1.4-3,5.1c-0.6,1.5-3.3,8-6.1,14.7c-3.3,7.9-5.7,13.8-7,16.4c-1.5,3.3-1.7,4.1-2.3,4.1
			s-0.9-0.8-1.9-3.4l-13.2-33.3c-1.2-3-2-3.6-3.9-4.2c-0.7-0.2-1.4-0.2-2.1-0.2c-0.3,0-0.4-0.2-0.4-0.4s0.6-0.4,1.4-0.4
			c2.6,0,5.7,0.2,6.3,0.2s3-0.2,5-0.2c1,0,1.5,0.1,1.5,0.4s-0.2,0.4-0.5,0.4c-0.7,0-1.4,0.1-2.1,0.3c-0.4,0.2-0.7,0.6-0.7,1.1
			c0.3,1.6,0.8,3.1,1.5,4.5L172,66.5z"/>
		<path d="M208.6,31.4c12.2,0,21.3,7.7,21.3,20.3c0,12.1-8.6,22.2-21.6,22.2c-14.9,0-21-11.5-21-21.3
			C187.3,43.8,193.6,31.4,208.6,31.4 M209.7,71.8c4.9,0,14.9-2.8,14.9-18.6c0-13-7.9-20-16.5-20c-9,0-15.8,6-15.8,17.8
			C192.4,63.7,200,71.8,209.7,71.8"/>
		<path d="M233.9,47.9c0-8.5,0-10-0.1-11.7s-0.5-2.7-2.3-3.1c-0.6-0.1-1.2-0.2-1.9-0.2c-0.2,0-0.4-0.1-0.4-0.3s0.3-0.4,0.9-0.4
			c2.4,0,5.9,0.2,6.1,0.2c0.6,0,4.7-0.2,6.4-0.2c3.4,0,7,0.3,9.9,2.4c2.3,1.8,3.7,4.5,3.7,7.4c0,4-1.7,8-6.6,12.5
			c4.4,5.7,8.2,10.4,11.3,13.9c6,7,16.3,14.3,33.4,6.9c8.5-3.7,12.4-12.5,13-12.6c1.5-0.4,1.8-0.8,1,0.7c0,0-5,8.8-13.7,13.1
			c-3.9,2-8.3,3.1-12.7,3.3c-5,0-13,0.1-22.8-7.5c-2.8-2.3-5.2-5-7.3-8c-2.3-3-4.8-6.6-5.9-8c-0.2-0.2-0.4-0.3-0.7-0.3l-6.7-0.1
			c-0.3,0-0.4,0.2-0.4,0.4v1.3c0,5.2,0,9.5,0.3,11.8c0.2,1.6,0.5,2.8,2.1,3c0.8,0.1,1.6,0.2,2.4,0.2c0.3,0,0.4,0.2,0.4,0.3
			s-0.3,0.4-0.9,0.4c-3,0-6.4-0.2-6.7-0.2c-0.1,0-3.5,0.2-5.1,0.2c-0.6,0-0.9-0.1-0.9-0.4c0-0.2,0.1-0.3,0.4-0.3
			c0.5,0,1.1-0.1,1.6-0.2c1.1-0.2,1.4-1.4,1.6-3c0.3-2.3,0.3-6.6,0.3-11.8L233.9,47.9z M238.3,52.6c0,0.3,0.1,0.5,0.4,0.7
			c0.8,0.5,3.3,0.9,5.7,0.9c1.4,0.1,2.8-0.3,4.1-1c1.9-1.3,3.3-4.2,3.3-8.3c0-6.8-3.6-10.8-9.4-10.8c-1.2,0-2.4,0.1-3.6,0.3
			c-0.3,0.1-0.4,0.4-0.4,0.7L238.3,52.6z"/>
		<path d="M282,31.4c12.2,0,21.3,7.7,21.3,20.3c0,12.1-8.6,22.2-21.6,22.2c-14.9,0-21-11.5-21-21.3C260.7,43.8,267.1,31.4,282,31.4
			 M283.2,71.8c4.9,0,15-2.8,15-18.6c0-13-7.9-20-16.5-20c-9,0-15.8,6-15.8,17.8C265.8,63.7,273.4,71.8,283.2,71.8"/>
		<path d="M14.2,51.4c0-2.8,0-3.3,0-3.9s-0.1-0.9-0.8-1c-0.1,0-0.5,0-0.6,0c-0.1,0-0.1-0.1-0.1-0.2c0-0.1,0.1-0.2,0.3-0.2
			c0.9,0,2.1,0,2.2,0s4.1,0,4.5,0s0.7-0.1,0.9-0.1c0.1,0,0.2-0.1,0.3-0.1c0.1,0,0.1,0.1,0.1,0.2c-0.1,0.3-0.1,0.6-0.1,0.8
			c0,0.2-0.1,1-0.1,1.2s-0.1,0.2-0.2,0.2s-0.1-0.1-0.1-0.2c0-0.2,0-0.4-0.1-0.6c-0.1-0.3-0.3-0.4-1.3-0.6c-0.4,0-2.5,0-2.7,0
			s-0.1,0.1-0.1,0.2v4.9c0,0.1,0,0.2,0.1,0.2c0.1,0,2.7,0,3.1,0s0.7-0.1,0.9-0.3s0.2-0.2,0.3-0.2s0.1,0,0.1,0.2s-0.1,0.4-0.1,1
			c0,0.4-0.1,1-0.1,1.2s0,0.3-0.2,0.3s-0.1-0.1-0.1-0.2c0-0.2,0-0.4-0.1-0.6c-0.1-0.3-0.2-0.5-1-0.6C18.3,53,16.3,53,16,53
			c-0.1,0-0.1,0.1-0.1,0.1v1.5c0,0.6,0,2.7,0,3.1c0.1,1.2,0.4,1.5,2.2,1.5c0.6,0,1.3,0,1.9-0.2c0.5-0.2,0.8-0.7,0.9-1.3
			c0-0.2,0.1-0.3,0.2-0.3s0.1,0.2,0.1,0.3c-0.1,0.6-0.1,1.2-0.3,1.7c-0.1,0.5-0.3,0.5-1,0.5c-1.4,0-2.5,0-3.3-0.1s-1.3,0-1.6,0h-0.8
			c-0.4,0-0.8,0-1.1,0s-0.3,0-0.3-0.2c0-0.1,0.1-0.2,0.1-0.2h0c0.2,0,0.4,0,0.6-0.1c0.4-0.1,0.4-0.4,0.5-1c0.1-1.3,0.1-2.6,0.1-3.9
			L14.2,51.4z"/>
		<path d="M25.5,54.7c0,2.7,0,3.8,0.4,4.1s1,0.4,2.5,0.4c1,0,1.8,0,2.3-0.6c0.2-0.3,0.4-0.6,0.5-1c0-0.1,0.1-0.2,0.2-0.2
			s0.1,0.1,0.1,0.3c0,0.6-0.1,1.2-0.3,1.8c-0.1,0.4-0.2,0.5-1.2,0.5c-1.3,0-2.4,0-3.3-0.1s-1.5,0-2,0c-0.1,0-0.4,0-0.8,0
			s-0.8,0-1.1,0s-0.3,0-0.3-0.2c0-0.1,0.1-0.2,0.1-0.2c0,0,0,0,0,0c0.2,0,0.4,0,0.6-0.1c0.4-0.1,0.4-0.4,0.5-1
			c0.1-0.8,0.1-2.2,0.1-3.9v-3.2c0-2.8,0-3.3,0-3.9s-0.1-0.9-0.8-1c-0.1,0-0.5,0-0.6,0c-0.1,0-0.1-0.1-0.1-0.2
			c0-0.1,0.1-0.2,0.3-0.2c0.9,0,2,0,2.1,0s1.5,0,2.1,0c0.2,0,0.3,0,0.3,0.2s-0.1,0.1-0.1,0.1h-0.6c-0.5,0.1-0.7,0.4-0.7,1
			s0,1.1,0,3.9L25.5,54.7z"/>
		<path d="M66.4,91.2L66.4,91.2c0-1.4,1.1-2.6,2.6-2.7c0,0,0,0,0,0c0.7,0,1.5,0.2,2,0.7l-0.6,0.7c-0.4-0.4-0.9-0.6-1.4-0.6
			c-1,0-1.7,0.9-1.7,1.8l0,0c-0.1,0.9,0.6,1.8,1.6,1.9c0.1,0,0.1,0,0.2,0c0.4,0,0.9-0.1,1.2-0.4v-1H69v-0.8h2.2V93
			c-0.6,0.5-1.3,0.8-2.1,0.8c-1.4,0.1-2.6-1-2.6-2.4C66.4,91.3,66.4,91.2,66.4,91.2"/>
		<path d="M76.3,88.6h0.8l2.3,5.2h-1L78,92.5h-2.4L75,93.7h-0.9L76.3,88.6z M77.6,91.7l-0.9-2.1l-0.9,2.1H77.6z"/>
		<path d="M82.1,93l0.5-0.6c0.4,0.4,1,0.7,1.6,0.7c0.6,0,0.9-0.3,0.9-0.6l0,0c0-0.4-0.2-0.6-1.2-0.8S82.3,91,82.3,90l0,0
			c0-0.9,0.8-1.5,1.6-1.5c0,0,0.1,0,0.1,0c0.7,0,1.3,0.2,1.8,0.7l-0.5,0.7c-0.4-0.3-0.9-0.5-1.4-0.5c-0.5,0-0.8,0.3-0.8,0.6l0,0
			c0,0.4,0.2,0.6,1.2,0.8s1.6,0.7,1.6,1.5l0,0c0,1-0.8,1.5-1.8,1.5C83.4,93.8,82.7,93.5,82.1,93"/>
		<polygon points="90.4,89.4 88.8,89.4 88.8,88.6 92.9,88.6 92.9,89.4 91.3,89.4 91.3,93.7 90.4,93.7 		"/>
		<path d="M96.1,88.6h2.3c0.5,0,1.1,0.2,1.5,0.5c0.3,0.3,0.4,0.7,0.4,1.1l0,0c0,0.8-0.5,1.4-1.3,1.6l1.4,1.9h-1l-1.3-1.8H97v1.8
			h-0.9L96.1,88.6z M98.3,91.1c0.6,0,1-0.3,1-0.8l0,0c0-0.6-0.4-0.8-1.1-0.8H97v1.7L98.3,91.1z"/>
		<path d="M103.3,91.2L103.3,91.2c0-1.5,1.2-2.7,2.7-2.7c1.5,0,2.7,1.2,2.7,2.7l0,0c0,1.4-1.2,2.6-2.6,2.6c0,0,0,0-0.1,0
			c-1.4,0-2.6-1.1-2.7-2.5C103.3,91.2,103.3,91.2,103.3,91.2 M107.7,91.2L107.7,91.2c0-1-0.7-1.8-1.7-1.8c0,0-0.1,0-0.1,0
			c-1,0-1.7,0.8-1.7,1.7c0,0,0,0,0,0.1l0,0c0,1,0.8,1.7,1.7,1.7S107.7,92.1,107.7,91.2C107.7,91.1,107.7,91.1,107.7,91.2"/>
		<polygon points="111.9,88.6 112.8,88.6 115.5,92.1 115.5,88.6 116.4,88.6 116.4,93.7 115.7,93.7 112.8,90.1 112.8,93.7 
			111.9,93.7 		"/>
		<path d="M119.7,91.2L119.7,91.2c0-1.5,1.2-2.7,2.7-2.7c1.5,0,2.7,1.2,2.7,2.7l0,0c0,1.4-1.2,2.6-2.6,2.6c0,0-0.1,0-0.1,0
			c-1.4,0-2.6-1.1-2.7-2.5C119.7,91.3,119.7,91.2,119.7,91.2 M124.1,91.2L124.1,91.2c0-1-0.7-1.8-1.7-1.8c0,0,0,0-0.1,0
			c-1,0-1.7,0.8-1.7,1.7c0,0,0,0,0,0.1l0,0c0,1,0.7,1.8,1.7,1.8c0,0,0,0,0.1,0C123.3,93,124.1,92.2,124.1,91.2
			C124.1,91.2,124.1,91.2,124.1,91.2"/>
		<polygon points="128.3,88.6 129.3,88.6 130.8,91 132.4,88.6 133.3,88.6 133.3,93.7 132.4,93.7 132.4,90 130.8,92.5 130.8,92.5 
			129.2,90.1 129.2,93.7 128.3,93.7 		"/>
		<rect x="136.9" y="88.6" width="0.9" height="5.1"/>
		<path d="M143.1,88.6h0.9l2.3,5.2h-0.9l-0.5-1.2h-2.4l-0.5,1.2h-0.9L143.1,88.6z M144.4,91.7l-0.9-2.1l-0.9,2.1H144.4z"/>
		<path d="M156.5,93.1c-0.4,0.4-1,0.7-1.6,0.7c-0.8,0.1-1.6-0.5-1.7-1.3c0,0,0-0.1,0-0.1l0,0c0-0.7,0.5-1.2,1.1-1.4
			c-0.3-0.3-0.4-0.7-0.4-1.1l0,0c0-0.7,0.7-1.3,1.4-1.3c0,0,0.1,0,0.1,0c0.7-0.1,1.3,0.5,1.3,1.1c0,0,0,0.1,0,0.1l0,0
			c0,0.7-0.4,1.1-1.1,1.3l0.9,0.9c0.2-0.3,0.4-0.7,0.6-1l0.7,0.4c-0.2,0.4-0.4,0.8-0.7,1.2l0.8,0.8l-0.7,0.5L156.5,93.1z M156,92.6
			l-1.1-1.2c-0.4,0.1-0.7,0.5-0.7,0.8l0,0c0,0.4,0.4,0.8,0.8,0.8c0,0,0,0,0,0C155.4,93,155.8,92.9,156,92.6 M156.1,89.8L156.1,89.8
			c0-0.3-0.2-0.6-0.5-0.6c0,0,0,0-0.1,0c-0.3,0-0.6,0.2-0.6,0.5c0,0,0,0,0,0.1l0,0c0,0.3,0.2,0.6,0.4,0.8
			C155.8,90.4,156.1,90.2,156.1,89.8"/>
		<path d="M165.3,88.6h2.3c0.5,0,1,0.1,1.3,0.4c0.2,0.2,0.3,0.5,0.3,0.8l0,0c0,0.5-0.3,0.9-0.7,1.1c0.6,0.1,1,0.6,1,1.2l0,0
			c0,0.9-0.8,1.4-1.9,1.4h-2.4L165.3,88.6z M167.4,90.8c0.6,0,1-0.2,1-0.7l0,0c0-0.4-0.3-0.7-0.9-0.7h-1.3v1.4L167.4,90.8z
			 M167.7,92.9c0.6,0,1-0.2,1-0.7l0,0c0-0.4-0.3-0.7-1-0.7h-1.5v1.4L167.7,92.9z"/>
		<path d="M172.7,91.5v-2.9h0.9v2.9c0,1,0.5,1.5,1.3,1.5s1.3-0.5,1.3-1.4v-2.9h0.9v2.9c0.2,1.1-0.6,2.1-1.7,2.3c-0.2,0-0.4,0-0.5,0
			c-1.1,0.1-2.1-0.7-2.2-1.8C172.7,91.8,172.7,91.7,172.7,91.5"/>
		<polygon points="180.5,88.6 184.3,88.6 184.3,89.4 181.4,89.4 181.4,90.7 183.9,90.7 183.9,91.5 181.4,91.5 181.4,92.9 
			184.3,92.9 184.3,93.7 180.5,93.7 		"/>
		<polygon points="187.6,88.6 188.4,88.6 191.1,92.1 191.1,88.6 192,88.6 192,93.7 191.3,93.7 188.5,90.1 188.5,93.7 187.6,93.7 		
			"/>
		<path d="M199.7,91.2L199.7,91.2c0-1.4,1.1-2.6,2.6-2.6c0,0,0,0,0.1,0c0.7,0,1.4,0.2,2,0.7l-0.6,0.7c-0.4-0.4-0.9-0.6-1.4-0.6
			c-1,0-1.7,0.9-1.7,1.8c0,0,0,0,0,0l0,0c-0.1,0.9,0.6,1.8,1.6,1.8c0,0,0.1,0,0.1,0c0.4,0,0.9-0.1,1.2-0.4v-1h-1.3v-0.8h2.2V93
			c-0.6,0.5-1.3,0.8-2.1,0.8c-1.4,0.1-2.6-1-2.6-2.4C199.7,91.3,199.7,91.2,199.7,91.2"/>
		<path d="M207.7,91.5v-2.9h0.9v2.9c0,1,0.5,1.5,1.3,1.5s1.3-0.5,1.3-1.4v-2.9h0.9v2.9c0.2,1.1-0.6,2.1-1.7,2.3c-0.2,0-0.4,0-0.5,0
			c-1.1,0.1-2.1-0.7-2.2-1.8C207.7,91.8,207.7,91.7,207.7,91.5"/>
		<path d="M215.2,93l0.5-0.6c0.4,0.4,1,0.7,1.6,0.7c0.6,0,0.9-0.3,0.9-0.6l0,0c0-0.4-0.2-0.6-1.2-0.8s-1.7-0.6-1.7-1.6l0,0
			c0-0.9,0.8-1.5,1.6-1.5c0,0,0.1,0,0.1,0c0.7,0,1.3,0.2,1.9,0.7l-0.5,0.7c-0.4-0.3-0.9-0.5-1.4-0.5c-0.5,0-0.8,0.3-0.8,0.6l0,0
			c0,0.4,0.2,0.6,1.2,0.8s1.6,0.7,1.6,1.5l0,0c0,1-0.8,1.5-1.8,1.5C216.6,93.8,215.8,93.5,215.2,93"/>
		<polygon points="223.6,89.4 221.9,89.4 221.9,88.6 226.1,88.6 226.1,89.4 224.4,89.4 224.4,93.7 223.6,93.7 		"/>
		<path d="M228.7,91.2L228.7,91.2c0-1.5,1.2-2.7,2.7-2.7c1.5,0,2.7,1.2,2.7,2.7l0,0c0,1.5-1.2,2.7-2.7,2.7
			C229.9,93.8,228.7,92.6,228.7,91.2 M233.1,91.2L233.1,91.2c0-1-0.7-1.8-1.7-1.8c0,0,0,0-0.1,0c-1,0-1.7,0.8-1.7,1.7c0,0,0,0,0,0.1
			l0,0c0,1,0.7,1.8,1.7,1.8c0,0,0.1,0,0.1,0C232.3,93,233.1,92.2,233.1,91.2C233.1,91.2,233.1,91.2,233.1,91.2"/>
		<text transform="matrix(1 0 0 1 72.94 10.37)" class="st0 st1 st2">N</text>
		<text transform="matrix(1 0 0 1 85.13 10.37)" class="st0 st1 st2">O</text>
		<text transform="matrix(1 0 0 1 95.87 10.37)" class="st0 st1 st2">T</text>
		<text transform="matrix(1 0 0 1 107.02 10.37)" class="st0 st1 st2">I</text>
		<text transform="matrix(1 0 0 1 113.29 10.37)" class="st0 st1 st2">C</text>
		<text transform="matrix(1 0 0 1 123.69 10.37)" class="st0 st1 st2">I</text>
		<text transform="matrix(1 0 0 1 130.41 10.37)" class="st0 st1 st2">A</text>
		<text transform="matrix(1 0 0 1 142.05 10.37)" class="st0 st1 st2">S </text>
		<text transform="matrix(1 0 0 1 158.17 10.37)" class="st0 st1 st2">A</text>
		<text transform="matrix(1 0 0 1 169.6 10.37)" class="st0 st1 st2">L </text>
		<text transform="matrix(1 0 0 1 185.62 10.37)" class="st0 st1 st2">P</text>
		<text transform="matrix(1 0 0 1 196.04 10.37)" class="st0 st1 st2">L</text>
		<text transform="matrix(1 0 0 1 206.19 10.37)" class="st0 st1 st3">A</text>
		<text transform="matrix(1 0 0 1 216.74 10.37)" class="st0 st1 st2">T</text>
		<text transform="matrix(1 0 0 1 227.76 10.37)" class="st0 st1 st2">O</text>
	</g>
</g>
</svg>
