<svg id="Capa_1" data-name="Capa 1" xmlns="http://www.w3.org/2000/svg" viewBox="0 0 251 214.53"><defs><style>.cls-1{fill:#77b1b8;}</style></defs><title>Mesa de trabajo 1</title><path class="cls-1" d="M243.41,192.48c-5-9.33-9.73-18.81-15.47-27.72-1.14-1.08-3-4.58-7.39-6a70.1,70.1,0,0,1-19.24-10.21c-10.38-7.45-20.66-15.08-32.74-19.76-5.1-2-5.91-3.08-5.49-8.54.52-6.95,1.16-13.91,2.29-20.77.58-3.55,2.38-6.88,3.57-10.33.43-1.25,1.27-1.21,2.35-1.17,1.83.06,3.06-1,4.06-2.47,4.7-6.77,6.15-14.48,6.55-22.5.17-3.19-1-6.78,2.55-9-1.14-3.51-1.67-3,.2-4.07.4-.22,1.59-1,1.56-1.33-.09-.9-.22-2.64-.75-2.38-1,.52-1.45,1.35-1.35-2.06A46.06,46.06,0,0,0,181,26.67c-1.46-4-4.73-6.87-6.14-10.77-1.49-4.1-4.84-6.25-8.28-8A96,96,0,0,0,147.13.44c-.39-.11-14.21-2.26-26,4a70.78,70.78,0,0,1-9.62,4c-1.19.42-2.11.75-2.46,2.07-1.24,4.62-5,7.63-7.45,11.49a13,13,0,0,0-1.74,3.48c-1.16,4.16-2,8.4-3.75,12.4-1.35,3.1-.75,6.45-.45,9.62.19,1.94.51,3.11-1.89,3.12-1,0-1.57.45-1.57,1.48a1.19,1.19,0,0,0,1.21,1.28c2,.19,2.47,2.09,3.48,3.29,1.84,2.18,1.75,3.17-.74,4.6-1.39.8-1.41,1.05-.24,1.83a2.56,2.56,0,0,1,1.07,2.62c-.56,5.52,1.85,10.38,3.4,15.43.75,2.46-.22,5.73,3.18,7-.58,4.16,3.58,6.9,2.82,11.55-.93,5.68-.62,11.6-1.31,17.39-.23,2-.85,3.55-2.63,4.5s-3.48,2.33-5.35,2.6c-6.26.92-11.59,4-17,6.79-7.27,3.68-15,6.33-21.91,10.85a15.65,15.65,0,0,1-6,2.47c-11.72,1.76-19.83,9-26.76,17.74C15.94,174,7.94,186.72,4.16,201.79,3.08,206.08,2,210.49,0,214.53H251c-1-4.26-1.79-8.62-3.16-12.77A62,62,0,0,0,243.41,192.48Z"/></svg>