<svg id="Capa_1" data-name="Capa 1" xmlns="http://www.w3.org/2000/svg" viewBox="0 0 172.23 304.1"><defs><style>.cls-1{fill:#5c7858;}</style></defs><title>silueta-proximo</title><path class="cls-1" d="M161,268.65c1.8-3.11,4-5.94,2.39-10.14-.52-1.37,1.32-3.77,2.33-5.56,1.85-3.28,4.24-6.31,5.73-9.74s.84-7.1-1.81-10.17c-5.53-6.41-11.83-12.38-16.24-19.5-3.82-6.16-7.14-13.53-7.72-20.6-1.06-12.7.28-25.57.24-38.37A59.16,59.16,0,0,0,144,141.39c-1.89-8-.61-15.84,1.63-23.47,2.07-7-.35-9.92-6.13-13.77a51.31,51.31,0,0,1-7.75-6.86,3.48,3.48,0,0,1-.63-3.14c2.61-5.13.29-10.49,1-15.58.78-5.69,3.63-11.09,4.53-16.78A22.14,22.14,0,0,0,135,50.88c-2.23-5.72-5.43-11.07-8.06-16.65-3.93-8.39-7.35-17-11.67-25.22C110.47-.15,99.8-1.35,91.41,1.11c-10.18,3-16.65,10.52-22.58,18.63-3.64,5-7.49,9.89-10.42,15.28-1.9,3.48-2.71,7.72-3.31,11.72a180.59,180.59,0,0,0-2.18,21.12c-.13,4.45,1.23,8.93,1.67,13.43a5.35,5.35,0,0,1-1.09,3.8c-3.81,4-7.81,7.68-7.78,13.9,0,1-1.69,2.35-2.89,3A85.43,85.43,0,0,1,33,106.5c-5.27,2-8.14,5.62-9.51,11.09-2.23,8.91-5.06,17.68-7.47,26.56-2.81,10.32-5.6,20.65-8.07,31.06A22.66,22.66,0,0,1,0,188.1v7a9.13,9.13,0,0,1,.64,2,47.34,47.34,0,0,1,2.16,7.71q1.93,12.94,3.22,26c.56,5.59,2.07,7.54,7.66,8.3a10.7,10.7,0,0,0,3,0c10-1.54,16,4.19,21.14,11.63a45.8,45.8,0,0,0,6.41,7.42c2.23,2.08,3.12,3.9,1.55,6.86C39.3,277.25,36.62,290.67,34,304.1H155c1-10.14,1.88-20.29,3.11-30.41C158.33,271.92,160,270.34,161,268.65ZM51.42,236.29c-.12.29-.43.49-.93,1-6.2-5.38-10.24-11.65-9.51-20.16.57-6.64,0-8.45-4.68-13.35,1.34-5,2.57-9.69,4.05-15.23,3.19,15.55,3.37,30.85,12.31,44.39C52.44,233.56,52,234.94,51.42,236.29Z"/></svg>