<svg id="Capa_1" data-name="Capa 1" xmlns="http://www.w3.org/2000/svg" viewBox="0 0 328.8 992.37"><title>urb</title><path d="M12.16,694.93c0-6.51,1.06-9,8.4-8.95,86.33.23,172.67,0,259,.07,26.14,0,38.73,13,38.77,39.24.06,30.73-.08,61.45.23,92.18.05,5.52-1.18,8.62-6.47,11.31-12,6.05-12.1,10.58-1.27,18.47,5.95,4.35,8.76,9.77,8.73,17.2-.13,30.11.14,60.22,0,90.32-.12,20.71-14.94,34.42-39.45,36.82-5.8.56-11.66.6-17.5.61-81.42,0-162.84-.06-244.26.17-7,0-9.16-1.45-9.09-9C9.63,935.17,12.41,742.85,12.16,694.93ZM162.32,921.47c19.94,0,39.89.13,59.83-.05,13-.12,18.2-4.67,21.1-17.2a46.84,46.84,0,0,0,.82-15.55c-1.66-15.85-13.21-27.93-27.78-28-38.35-.29-76.7,0-115-.21-5,0-6.16,1.62-6.08,6.32.27,16,.39,31.92,0,47.86-.16,6,2,7.06,7.38,7C122.43,921.3,142.38,921.47,162.32,921.47Zm-3.64-117.16c19.65,0,39.31.21,59-.07,15.16-.21,24.57-10,24.8-25,.24-15.75-10.51-28.76-24.83-28.86-39.62-.26-79.25,0-118.87-.21-5,0-6.17,1.61-6.23,6.21C92.37,770.21,92,784,91.3,797.83c-.28,5.29,1.34,6.68,6.56,6.61C118.13,804.14,138.4,804.32,158.68,804.31Z" style="fill:#dfd5de"/><path d="M7.24,500q0-65.43,0-130.85c0-20.33,5-25.33,25.73-25.33q113.34,0,226.68,0c10.11,0,20.21-1,30.29,1.18,19.6,4.18,31.26,17.39,31.45,37.4.3,31,0,62.05.18,93.07.05,8.43-5.48,13.48-10.53,18.52-5.68,5.67-6.08,9.71.48,14.91,7.57,6,9.55,14.92,9.6,24q.3,55.29,0,110.57c0,10.92-3.43,13.94-14.57,14-18.12.06-36.26-.36-54.36.21-7.81.24-11.48-3.38-13.18-9.93a78.72,78.72,0,0,1-2.1-20.1q.09-43.3,0-86.62c0-13.2-3.75-17.06-16.81-17.08q-54.37-.09-108.74,0c-17.84,0-22.78,4.87-22.84,23.06-.09,31.63,0,63.27,0,94.91,0,12.27-2.82,15.42-15,15.55-16.89.16-33.8-.34-50.67.19-9.06.29-13.09-4.37-14.46-12.07a101.3,101.3,0,0,1-1.12-17.43Q7.16,564,7.24,500Zm153.43-29c18.41,0,36.83.12,55.24,0,13.42-.13,24.54-5.52,32.15-16.6,9.8-14.26,4.41-29.78-11.82-35.31A64.57,64.57,0,0,0,215.38,416c-37.13,0-74.27.24-111.4.05-5.94,0-7.18,2.21-7.12,7.51.17,13.5.17,27-.37,40.5-.22,5.7,1.39,7.25,7.09,7.15C122.6,470.8,141.64,471,160.67,471Z" style="fill:#dfd5de"/><path d="M289.52,241.41c7.67,0,15.35-.17,23,.05,9.9.28,15.41,5.53,15.62,15.39q.45,21.16,0,42.35c-.21,10.25-5.84,15.6-16.35,15.75q-22.09.33-44.19,0c-10.79-.16-16.66-5.84-16.89-16.47-.29-13.5-.26-27,0-40.51.2-10.76,6-16.33,16.68-16.54C274.78,241.29,282.15,241.41,289.52,241.41Z" style="fill:#dfd5de"/><path d="M104.44,122.68q0,47.92,0,95.85c0,10.26,3.23,14.25,13.45,14.34,32.26.26,64.51.06,96.76.14,8.07,0,12.33-4.63,14.88-11.44,2.29-6.12,2.47-12.57,2.46-19.06q-.07-85.24,0-170.49a72.44,72.44,0,0,1,.37-10.11c2.49-17.4,7-21.22,24.49-21.23,19.05,0,38.11.45,57.13-.21,8.39-.29,12,3.66,13.37,10.64a86.7,86.7,0,0,1,1.41,16.49q.15,90.78,0,181.55a57.63,57.63,0,0,1-1,11c-1.62,8.21-6,12.64-15.23,12.44-21.18-.46-42.38-.17-63.58-.13-13.54,0-17.88,4.07-18,17.34q-.19,19.34.31,38.69c.49,18.57-7.09,26.73-25.52,26.75q-70,0-140.08,0a83.74,83.74,0,0,1-28.83-5C13.16,301.65.43,285.52.29,260.49q-.63-118-.06-235.92C.29,6.24,7.45,0,25.79,0,43.91,0,62,0,80.16,0,94.24.1,101,5.68,103.58,19.55a65.68,65.68,0,0,1,.86,11.9q.11,45.61,0,91.23Z" style="fill:#dfd5de"/></svg>